<svg style="position:absolute;width:0;height:0" xmlns="http://www.w3.org/2000/svg" overflow="hidden"><defs><symbol viewBox="0 0 37 32"><path class="path1" d="M33 6.054h-9.125v2.214H33V6.054zm-4.5 7.607q-1.607 0-2.607.94t-1.107 2.546h7.286q-.32-3.482-3.57-3.482zm.286 10.45q1.125 0 2.18-.57t1.356-1.556h3.946q-1.786 5.482-7.625 5.482-3.82 0-6.08-2.357t-2.26-6.197q0-3.713 2.33-6.17t6.01-2.454q2.464 0 4.295 1.213T35.67 14.7t.902 4.43q0 .302-.036.837h-11.75q0 1.982 1.027 3.063t2.973 1.08zm-23.84-.894h5.286q3.66 0 3.66-2.982 0-3.214-3.553-3.214H4.943v6.195zm0-9.59h5.018q1.393 0 2.205-.65t.81-2.028q0-2.57-3.393-2.57H4.945v5.25zM0 4.536h10.607q1.554 0 2.768.25t2.26.85 1.606 1.722.566 2.75q0 3.232-3.07 4.696 2.035.57 3.07 2.054T18.84 20.5q0 1.34-.438 2.438t-1.18 1.848-1.758 1.268-2.16.75-2.394.232H0v-22.5z"/></symbol><symbol viewBox="0 0 18 32"><path class="path1" d="M18.286 5.41l-5.41 10.394.428.554h4.982v7.41H9.232l-.786.537L5.91 29.18l-.536.536H0v-5.41l5.41-10.412-.43-.536H0v-7.41h9.053l.786-.537L12.372.54 12.91 0h5.376v5.41z"/></symbol><symbol viewBox="0 0 32 32"><path class="path1" d="M10.66 7.518v20.946q0 .446-.222.76t-.652.312q-.304 0-.59-.143l-8.303-4.16q-.375-.18-.634-.6t-.26-.83V3.448q0-.357.18-.607t.515-.25q.25 0 .786.27l9.126 4.57q.054.055.054.09zm1.144 1.803l9.536 15.467-9.536-4.75V9.32zM32 9.646v18.82q0 .447-.25.724t-.68.276-.838-.232l-7.875-3.93zM31.946 7.5q0 .054-4.58 7.49T22 23.697l-6.964-11.32 5.786-9.412q.304-.5.93-.5.25 0 .463.107l9.66 4.822q.072.036.072.107z"/></symbol><symbol viewBox="0 0 32 32"><path class="path1" d="M15.59 13.214q0 1.482-1.135 2.545t-2.723 1.06-2.722-1.06-1.135-2.547q0-1.5 1.134-2.554t2.72-1.055 2.723 1.054 1.134 2.553zm8.964 0q0 1.482-1.125 2.545t-2.735 1.06q-1.59 0-2.723-1.063t-1.134-2.546q0-1.5 1.133-2.553t2.724-1.054q1.607 0 2.732 1.054t1.124 2.554zm4.017 3.215V4.515q0-1.554-.57-2.205t-1.98-.65H6.16q-1.48 0-2.008.607t-.527 2.25v12.018q.768.41 1.58.714t1.446.5 1.45.33 1.267.195 1.25.07 1.045.01 1.01-.036.795-.037q1.214-.018 1.696.482.108.107.18.16.464.447 1.09.912.124-1.625 2.106-1.554.09 0 .65.027t.77.038.812.018.945-.018.973-.08 1.09-.152 1.106-.24 1.196-.35 1.204-.48 1.286-.617zm2.914-.09q-2.16 2.66-6.643 4.5 1.5 5.086-.41 8.3-1.18 2.02-3.27 2.644-1.856.57-3.25-.268-1.535-.91-1.463-2.93l-.018-5.82v-.018q-.144-.037-.44-.108t-.42-.09l-.017 6.037q.07 2.035-1.482 2.93-1.41.837-3.267.266-2.09-.643-3.25-2.68-1.875-3.213-.393-8.267Q2.675 19 .514 16.34q-.446-.66-.07-1.125t1.07.018q.054.036.196.125t.197.143V3.11q0-1.286.84-2.196t2.035-.91H27.23q1.195 0 2.035.91t.84 2.196V15.5l.374-.267q.693-.482 1.07-.018t-.07 1.125z"/></symbol><symbol viewBox="0 0 30 32"><path class="path1" d="M15.143 2.286q2.393-.018 4.295 1.223t2.92 3.435q.482 1.036.482 3.196 0 .84-.16 3.41.25.127.5.127.32 0 .91-.242t.91-.24q.52 0 1 .32t.483.82q0 .572-.563.965t-1.232.564-1.232.518-.563.848q0 .268.214.768.66 1.464 1.83 2.68t2.58 1.803q.5.216 1.43.41.5.11.5.628 0 1.25-3.912 1.838-.125.196-.196.696t-.25.83-.59.33q-.36 0-1.11-.115t-1.142-.116q-.66 0-1.108.09-.57.088-1.125.4t-1.036.68-1.036.723-1.357.598-1.77.24q-.928 0-1.722-.24t-1.34-.597-1.026-.723-1.037-.68-1.107-.4q-.465-.09-1.126-.09-.43 0-1.17.133t-1.044.134q-.447 0-.626-.33t-.25-.848-.196-.716q-3.91-.59-3.91-1.84 0-.517.5-.624.928-.195 1.428-.41 1.393-.57 2.58-1.804T6.606 18q.214-.5.214-.768 0-.5-.563-.848t-1.24-.527-1.242-.563-.563-.938q0-.482.464-.813t.982-.33q.268 0 .857.232t.946.232q.324 0 .574-.125-.16-2.536-.16-3.393 0-2.18.48-3.217Q8.497 4.5 10.424 3.41t4.715-1.126z"/></symbol><symbol viewBox="0 0 27 32"><path class="path1" d="M13.804 23.554v2.268q-.018 5.214-.107 5.446-.214.57-.91.714-.965.16-3.242-.68t-2.902-1.588q-.232-.268-.304-.643-.02-.21.07-.46.07-.18.605-.84t3.232-3.857q.017 0 1.07-1.25.268-.338.705-.437t.884.063q.428.18.67.517t.222.75zm-2.66-4.483q-.055.985-.93 1.25l-2.143.7q-4.91 1.57-5.21 1.57-.626-.036-.965-.643-.214-.446-.304-1.34-.143-1.356.018-2.972t.536-2.223 1-.57q.232 0 3.607 1.375 1.25.518 2.055.84l1.5.606q.41.16.634.546t.204.865zm14.75 5.307q-.126.964-1.635 2.875t-2.42 2.27q-.664.25-1.128-.126-.25-.18-3.286-5.125l-.84-1.375q-.25-.375-.204-.82t.348-.822q.626-.767 1.483-.463.018.017 2.125.713 3.624 1.18 4.32 1.42t.84.367q.5.393.392 1.09zm-12-11.286q.088 1.82-.965 2.18-1.04.303-2.04-1.27L4.143 3.32q-.142-.624.34-1.106.73-.768 3.705-1.598t4.01-.563q.713.18.874.804.057.32.396 5.455t.43 6.777zm11.82 1.93q.054.695-.464 1.053-.268.18-5.875 1.536-1.196.267-1.625.41l.018-.036q-.41.107-.82-.07t-.662-.572q-.536-.837 0-1.552.018-.018 1.34-1.82 2.23-3.055 2.678-3.644t.607-.696q.5-.34 1.164-.036.857.412 2.196 2.385t1.445 2.99v.054z"/></symbol><symbol viewBox="0 0 27 32"><path class="path1" d="M26.732 14.768v3.536q-1.804.41-3.536.41-1.16 2.43-2.955 4.84T17 27.402t-2.286 1.902q-1.43.804-2.893-.054-.5-.304-1.08-.777t-1.515-1.49-1.83-2.296-1.92-3.286-1.884-4.354-1.634-5.616-1.26-6.965H5.75Q6.214 8.357 7 11.58t1.866 5.66 2.17 4.206 2.5 3.482q3.018-3.018 5.125-7.25-2.533-1.286-3.98-3.93t-1.445-5.945q0-3.43 1.857-5.616T20.16 0q3.18 0 4.876 1.883t1.696 5.313q0 2.84-1.036 5.107-.125.018-.348.054t-.82.036-1.126-.107-1.107-.455-.902-.92q.554-1.836.554-3.283 0-1.554-.518-2.357t-1.414-.805q-.946 0-1.518.884t-.57 2.51q0 3.32 1.873 5.24t4.77 1.92q1.107 0 2.16-.25z"/></symbol><symbol viewBox="0 0 35 32"><path class="path1" d="M34.232 9.286q.41 1.143-2.68 5.25-.428.57-1.16 1.518-1.393 1.786-1.607 2.34-.304.73.25 1.445.304.372 1.446 1.46h.02l.07.07q2.52 2.34 3.41 3.948.057.09.12.222t.124.473-.01.607-.445.49-1.055.224l-4.57.07q-.43.09-1-.088t-.93-.394l-.357-.214q-.536-.375-1.25-1.143t-1.223-1.385-1.09-1.036-1.008-.278q-.054.018-.143.063t-.304.26-.385.526-.304.93-.114 1.384q0 .27-.063.49t-.133.33l-.07.09q-.323.34-.948.394h-2.054q-1.268.07-2.607-.295t-2.35-.948-1.836-1.18-1.26-1.026l-.445-.43q-.18-.178-.49-.535T6.497 21.3t-1.894-2.696-2.188-3.768T.088 9.98q-.107-.287-.107-.483t.057-.286l.07-.104q.27-.34 1.02-.34L6.02 8.73q.213.036.41.116t.286.152l.09.054q.285.198.428.573.357.893.82 1.848t.733 1.456l.286.517q.52 1.07 1 1.857t.867 1.224.74.688.607.25.482-.088q.034-.018.09-.09t.21-.392.24-.84.17-1.445 0-2.23q-.034-.715-.16-1.305t-.25-.82l-.106-.215q-.446-.607-1.518-.768-.232-.036.09-.43.303-.338.678-.535.946-.463 4.268-.428 1.465.017 2.412.23.357.09.598.24t.366.43.187.57.063.815-.018.982-.046 1.26-.027 1.472q0 .195-.02.75t-.01.856.064.723.206.695.4.437q.144.036.305.07t.465-.195.68-.615.927-1.196 1.214-1.92q1.07-1.857 1.91-4.02.073-.177.18-.31t.197-.19l.07-.053.09-.045.232-.053.356-.01 5.144-.036q.695-.09 1.142.044t.555.294z"/></symbol><symbol viewBox="0 0 30 32"><path class="path1" d="M20.57 14.857q0-3.304-2.347-5.652T12.57 6.857 6.92 9.205t-2.35 5.652 2.35 5.652 5.65 2.345 5.653-2.348 2.348-5.653zm9.144 14.857q0 .93-.68 1.607T27.43 32q-.964 0-1.607-.68L19.7 25.214q-3.197 2.214-7.126 2.214-2.553 0-4.883-.99t-4.016-2.68T.99 19.74 0 14.856t.99-4.884 2.68-4.018 4.017-2.68 4.884-.99 4.887.99 4.018 2.68 2.68 4.018.99 4.884q0 3.93-2.214 7.125l6.125 6.128q.66.66.66 1.607z"/></symbol><symbol viewBox="0 0 32 32"><path class="path1" d="M29.714 26.857V13.143q-.57.643-1.232 1.18-4.786 3.678-7.607 6.035-.91.768-1.482 1.196t-1.545.866-1.83.438h-.036q-.857 0-1.83-.438t-1.545-.866-1.482-1.196Q8.305 18 3.518 14.322q-.66-.536-1.232-1.18v13.715q0 .232.17.402t.402.17h26.286q.232 0 .402-.17t.17-.405zm0-18.768v-.44l-.01-.23-.053-.226-.095-.16-.16-.135-.25-.045H2.855q-.23 0-.4.17t-.17.402q0 3 2.623 5.07 3.445 2.715 7.16 5.662.107.09.625.526t.82.67.796.563.9.49.77.16h.036q.357 0 .768-.16t.902-.49.795-.564.82-.67.627-.527q3.714-2.947 7.16-5.66.965-.77 1.796-2.065t.83-2.348zM32 7.43v19.428q0 1.18-.84 2.018t-2.017.84H2.857q-1.18 0-2.018-.84T0 26.858V7.428Q0 6.25.84 5.412t2.017-.838h26.286q1.18 0 2.018.84T32 7.428z"/></symbol><symbol viewBox="0 0 25 32"><path class="path1" d="M23.18 23.607q0 .714-.5 1.214l-2.43 2.43q-.5.5-1.214.5t-1.214-.5L12.572 22l-5.25 5.25q-.5.5-1.214.5t-1.214-.5l-2.43-2.43q-.5-.5-.5-1.213t.5-1.214l5.25-5.25-5.25-5.25q-.5-.5-.5-1.214t.5-1.217l2.43-2.43q.5-.5 1.214-.5t1.214.5l5.25 5.25 5.25-5.25q.5-.5 1.214-.5t1.214.5l2.43 2.43q.5.5.5 1.214t-.5 1.213l-5.25 5.25 5.25 5.25q.5.5.5 1.215z"/></symbol><symbol viewBox="0 0 21 32"><path class="path1" d="M19.196 13.143q0 .232-.18.41l-8.32 8.322q-.18.18-.41.18t-.412-.18l-8.32-8.32q-.18-.18-.18-.412t.18-.41l.892-.894q.18-.18.41-.18t.412.18l7.018 7.015 7.018-7.018q.18-.18.41-.18t.412.18l.893.892q.176.18.176.41z"/></symbol><symbol viewBox="0 0 34 32"><path class="path1" d="M33.554 17q0 .554-.554 1.18l-6 7.07q-.768.91-2.152 1.545t-2.563.634H2.855q-.606 0-1.08-.235t-.472-.768q0-.555.554-1.18l6-7.07q.768-.912 2.152-1.546t2.56-.63H32q.606 0 1.08.232t.472.768zm-6.125-6.143v2.857H12.57q-1.68 0-3.518.848t-2.93 2.134L.02 23.876q0-.072-.01-.224T0 23.43V6.285q0-1.643 1.18-2.82T4 2.285h5.714q1.643 0 2.82 1.18t1.18 2.82v.57h9.714q1.643 0 2.82 1.18t1.18 2.82z"/></symbol><symbol viewBox="0 0 30 32"><path class="path1" d="M28.93 7.286q-1.197 1.75-2.894 2.982.018.25.018.75 0 2.32-.68 4.634t-2.062 4.437-3.295 3.756-4.607 2.607-5.768.973q-4.84 0-8.857-2.59.625.072 1.393.072 4.018 0 7.16-2.465-1.874-.036-3.356-1.152t-2.036-2.847q.59.09 1.09.09.767 0 1.517-.197-2-.412-3.313-1.992t-1.313-3.67v-.07q1.214.678 2.607.73-1.18-.785-1.875-2.053t-.7-2.75q0-1.57.787-2.91 2.16 2.66 5.258 4.26t6.634 1.777q-.144-.68-.144-1.32 0-2.394 1.687-4.08t4.08-1.69q2.5 0 4.214 1.822 1.95-.374 3.665-1.39-.66 2.052-2.536 3.177 1.66-.18 3.32-.893z"/></symbol><symbol viewBox="0 0 19 32"><path class="path1" d="M17.125.214v4.714H14.32q-1.535 0-2.07.643t-.536 1.93v3.377h5.232l-.696 5.286h-4.536v13.555H6.25V16.16H1.696v-5.285H6.25V6.982q0-3.32 1.857-5.152T13.053 0q2.625 0 4.07.214z"/></symbol><symbol viewBox="0 0 27 32"><path class="path1" d="M13.714 2.286q3.732 0 6.884 1.84t4.99 4.99T27.43 16q0 4.482-2.616 8.063t-6.76 4.955q-.48.09-.713-.125t-.23-.536q0-.054.01-1.366t.007-2.4q0-1.73-.93-2.535 1.02-.107 1.83-.32t1.68-.697 1.446-1.188.947-1.876.365-2.688q0-2.125-1.41-3.68.66-1.624-.144-3.642-.5-.16-1.445.196t-1.643.785l-.68.43q-1.66-.465-3.427-.465t-3.43.464q-.285-.196-.758-.482t-1.49-.688-1.52-.24q-.803 2.017-.142 3.642-1.41 1.554-1.41 3.68 0 1.517.365 2.678t.938 1.875 1.438 1.193 1.68.696 1.83.32q-.697.644-.876 1.84-.375.18-.804.268t-1.018.087-1.17-.384-.99-1.115q-.34-.57-.867-.93t-.884-.428l-.357-.055q-.376 0-.52.08t-.09.205.16.25.234.215l.125.09q.392.178.776.678t.563.91l.18.412q.23.68.784 1.098t1.196.536 1.24.123.99-.064l.41-.07q0 .68.01 1.58t.01.973q0 .32-.233.535t-.714.123Q5.23 27.64 2.613 24.06T0 15.995q0-3.732 1.838-6.884t4.99-4.99 6.885-1.84zM5.196 21.982q.054-.125-.125-.214-.176-.054-.23.036-.053.125.126.214.16.107.232-.036zm.554.607q.125-.09-.036-.29-.18-.16-.286-.053-.125.088.036.285.18.18.286.054zm.536.8q.16-.124 0-.34-.143-.23-.304-.105-.16.09 0 .32t.304.126zm.75.75q.143-.142-.07-.34-.215-.212-.358-.052-.16.142.07.34.215.212.358.052zm1.018.447q.054-.197-.232-.287-.268-.07-.34.126t.233.268q.268.107.34-.107zm1.125.09q0-.233-.307-.197-.286 0-.286.197 0 .23.303.195.287 0 .287-.196zm1.032-.18q-.036-.196-.32-.16-.287.053-.25.267t.32.143.25-.25z"/></symbol><symbol viewBox="0 0 27 32"><path class="path1" d="M27.43 24v2.286q0 .464-.34.804t-.804.34H1.143q-.464 0-.804-.34T0 26.286V24q0-.464.34-.804t.803-.34h25.143q.464 0 .804.34t.34.804zm0-9.143v2.286q0 .464-.34.804t-.804.34H1.143q-.464 0-.804-.34T0 17.143v-2.286q0-.464.34-.804t.803-.34h25.143q.464 0 .804.34t.34.804zm0-9.143V8q0 .464-.34.804t-.804.34H1.143q-.464 0-.804-.34T0 8V5.714q0-.464.34-.804t.803-.34h25.143q.464 0 .804.34t.34.804z"/></symbol><symbol viewBox="0 0 41 32"><path class="path1" d="M25.66 16.304q0 3.714-1.553 6.616t-4.43 4.536-6.588 1.634q-2.664 0-5.09-1.036t-4.18-2.786-2.787-4.18T0 16t1.035-5.09T3.82 6.733 8 3.946t5.09-1.036q5.106 0 8.767 3.43l-3.554 3.41q-2.09-2.018-5.214-2.018-2.2 0-4.066 1.107T6.07 11.845 4.983 16t1.09 4.152 2.954 3.01 4.063 1.106q1.48 0 2.722-.41t2.045-1.028 1.402-1.402.872-1.482.384-1.32h-7.43v-4.5h12.358q.214 1.124.214 2.178zm15.483-2.18v3.75H37.41v3.733h-3.75v-3.732h-3.73v-3.75h3.73v-3.732h3.75v3.732h3.733z"/></symbol><symbol viewBox="0 0 27 32"><path class="path1" d="M6.232 11.16v17.697H.34V11.16h5.89zm.375-5.464Q6.625 7 5.705 7.876t-2.42.874H3.25q-1.465 0-2.358-.875T0 5.695q0-1.32.92-2.187t2.4-.866 2.376.866.91 2.188zM27.43 18.714v10.143h-5.876v-9.464q0-1.875-.723-2.938t-2.256-1.063q-1.125 0-1.884.616t-1.135 1.527q-.196.536-.196 1.446v9.878H9.48q.036-7.125.036-11.554t-.02-5.286l-.018-.857h5.875v2.57h-.036q.357-.57.732-1t1.01-.93 1.553-.775 2.045-.277q3.055 0 4.91 2.027t1.86 5.938z"/></symbol><symbol viewBox="0 0 30 32"><path class="path1" d="M13.714 5.714v12.57q0 1.858-.723 3.546t-1.952 2.92-2.92 1.955-3.545.723H3.43q-.464 0-.804-.34t-.34-.803V24q0-.465.34-.805t.804-.34h1.14q1.894 0 3.233-1.338t1.34-3.232v-.57q0-.715-.5-1.215T7.427 16h-4q-1.43 0-2.43-1t-1-2.43V5.715q0-1.43 1-2.43t2.43-1h6.857q1.43 0 2.43 1t1 2.43zm16 0v12.57q0 1.858-.723 3.546t-1.952 2.92-2.92 1.955-3.545.723H19.43q-.464 0-.804-.34t-.34-.803V24q0-.465.34-.805t.804-.34h1.143q1.894 0 3.233-1.338t1.34-3.232v-.57q0-.715-.5-1.215T23.43 16h-4Q18 16 17 15t-1-2.43V5.715q0-1.43 1-2.43t2.43-1h6.858q1.43 0 2.43 1t1 2.43z"/></symbol><symbol viewBox="0 0 32 32"><path class="path1" d="M32 20q0 2.964-2.268 8.054-.054.125-.188.43t-.24.535-.233.39q-.21.304-.5.304-.265 0-.42-.18T28 29.09q0-.16.045-.472t.045-.42q.088-1.214.088-2.196 0-1.804-.313-3.232T27 20.297t-1.43-1.804-1.884-1.24-2.375-.76-2.75-.384-3.13-.11h-4v4.57q0 .465-.34.805t-.803.34-.804-.34L.34 12.235Q0 11.895 0 11.43t.34-.804l9.14-9.143q.34-.34.804-.34t.804.34.34.804v4.57h4q12.73 0 15.624 7.197.946 2.393.946 5.946z"/></symbol><symbol viewBox="0 0 27 32"><path class="path1" d="M17.34 22.214v3.768q0 1.196-.697 1.196-.41 0-.804-.393V21.41q.39-.393.8-.393.697 0 .697 1.196zm6.035.018v.82h-1.607v-.82q0-1.214.804-1.214t.804 1.214zM6.125 18.34h1.91v-1.68h-5.57v1.68H4.34V28.5h1.786V18.34zm5.143 10.16h1.59v-8.82h-1.59v6.75q-.536.75-1.018.75-.32 0-.375-.376-.018-.054-.018-.625v-6.5h-1.59v6.98q0 .874.144 1.303.217.66 1.04.66.856 0 1.82-1.088v.964zm7.66-2.643V22.34q0-1.305-.16-1.77-.304-1-1.268-1-.893 0-1.66.965V16.66h-1.59V28.5h1.59v-.858q.803.982 1.66.982.964 0 1.268-.982.16-.482.16-1.786zm6.036-.178v-.235H23.34q0 .91-.037 1.09-.125.642-.714.642-.824 0-.824-1.233V24.39h3.196v-1.84q0-1.41-.482-2.07-.695-.91-1.892-.91-1.215 0-1.912.91-.5.66-.5 2.07v3.09q0 1.41.518 2.07.696.913 1.93.913 1.285 0 1.928-.946.32-.483.375-.965.035-.16.035-1.036zM14.107 9.372v-3.75q0-1.232-.768-1.232t-.77 1.233v3.75q0 1.25.77 1.25t.765-1.25zm12.84 13.41q0 4.18-.465 6.25-.25 1.055-1.036 1.77t-1.82.82Q20.338 32 13.713 32t-9.91-.375q-1.037-.107-1.83-.82t-1.028-1.77q-.464-2-.464-6.25 0-4.178.466-6.25.25-1.053 1.036-1.767t1.84-.84q3.268-.356 9.893-.356t9.91.357q1.037.122 1.83.836t1.028 1.768q.465 2 .465 6.25zM9.124 0h1.82l-2.16 7.125v4.84H7v-4.84q-.25-1.32-1.09-3.786Q5.25 1.5 4.75 0h1.89l1.27 4.696zm6.607 5.946V9.07q0 1.447-.5 2.108-.66.91-1.89.91-1.198 0-1.877-.91-.5-.68-.5-2.107V5.95q0-1.43.5-2.09.68-.91 1.875-.91 1.23 0 1.892.91.5.662.5 2.09zm5.984-2.892v8.91H20.09v-.98q-.947 1.106-1.84 1.106-.82 0-1.054-.66-.143-.43-.143-1.34V3.054h1.625v6.554q0 .59.018.625.054.393.375.393.485 0 1.02-.768V3.054h1.626z"/></symbol><symbol viewBox="0 0 32 32"><path class="path1" d="M7.18 12.625L16 18.07l-6.107 5.09-8.75-5.696zm17.606 9.91v1.93l-8.75 5.232v.018l-.018-.018-.018.018v-.018l-8.732-5.232v-1.93l2.625 1.715L16 19.18v-.037l.018.018.018-.015v.036l6.125 5.07zM9.893 2.108L16 7.198l-8.82 5.427-6.037-4.82zM24.82 12.625l6.037 4.84-8.732 5.695L16 18.07zM22.126 2.107l8.732 5.696-6.036 4.82L16 7.196z"/></symbol><symbol viewBox="0 0 27 32"><path class="path1" d="M18.286 16q0-1.893-1.34-3.232t-3.23-1.34-3.233 1.34T9.143 16t1.34 3.232 3.232 1.34 3.232-1.34T18.287 16zm2.464 0q0 2.93-2.054 4.982t-4.982 2.054-4.982-2.054T6.678 16t2.054-4.982 4.982-2.054 4.982 2.054T20.75 16zm1.93-7.32q0 .678-.483 1.16t-1.16.482-1.162-.482-.482-1.16.482-1.162 1.16-.482 1.162.482.482 1.16zm-8.966-3.93q-.125 0-1.366-.01t-1.884 0-1.723.055-1.836.18-1.277.33q-.893.356-1.57 1.035t-1.04 1.57q-.195.52-.33 1.278t-.18 1.84-.052 1.722 0 1.884.01 1.366-.01 1.366 0 1.884.054 1.723.177 1.84.33 1.276q.357.89 1.036 1.57t1.57 1.034q.52.196 1.278.33t1.84.18 1.723.053 1.884 0 1.366-.01 1.366.01 1.883 0 1.723-.055 1.84-.18 1.276-.33q.894-.356 1.57-1.035t1.038-1.57q.196-.52.33-1.278t.18-1.84.053-1.723 0-1.884-.01-1.366.01-1.366 0-1.883-.053-1.723-.18-1.84-.33-1.276q-.357-.893-1.036-1.57T21.8 5.302q-.52-.196-1.277-.33t-1.84-.18-1.722-.053-1.882 0-1.366.01zM27.43 16q0 4.09-.09 5.66-.18 3.715-2.214 5.75t-5.75 2.215q-1.57.09-5.66.09t-5.662-.09q-3.714-.18-5.75-2.214T.09 21.66Q0 20.09 0 16t.09-5.66q.18-3.715 2.214-5.75t5.75-2.215q1.57-.09 5.66-.09t5.662.09q3.714.18 5.75 2.214t2.214 5.75q.09 1.57.09 5.66z"/></symbol><symbol viewBox="0 0 27 32"><path class="path1" d="M22.286 2.286q2.125 0 3.634 1.51t1.51 3.633v17.14q0 2.124-1.51 3.633t-3.634 1.51H5.143q-2.125 0-3.634-1.51T0 24.573V7.43q0-2.126 1.51-3.635t3.633-1.51h17.143zM12.464 16q0-1.57-1.107-2.68t-2.68-1.106T6 13.32 4.89 16 6 18.68t2.678 1.106 2.68-1.107T12.463 16zm10.072 0q0-1.57-1.107-2.68t-2.68-1.106-2.68 1.107T14.963 16t1.107 2.68 2.68 1.106 2.68-1.107T22.536 16z"/></symbol><symbol viewBox="0 0 19 32"><path class="path1" d="M16.857 23.732l1.43 4.232q-.412.625-1.983 1.18t-3.16.57q-1.858.036-3.403-.464T7.2 27.93 5.5 26.035t-.99-2.143-.296-2.107V12.07h-3V8.23Q2.5 7.77 3.518 6.994t1.625-1.607 1.036-1.82.604-1.77.268-1.58q.018-.088.08-.15T7.268 0h4.357v7.572h5.946v4.5h-5.96v9.25q0 .536.116 1t.402.938.884.74 1.454.25q1.393-.035 2.393-.517z"/></symbol><symbol viewBox="0 0 27 32"><path class="path1" d="M18.286 26.786q-.75-4.304-2.5-8.893h-.036l-.036.018q-.286.11-.768.298t-1.804.875-2.446 1.465-2.34 2.045-1.838 2.643l-.268-.196q3.286 2.68 7.464 2.68 2.357 0 4.57-.93zm-3.304-10.84q-.375-.875-.946-1.982-5.554 1.66-12.018 1.66Q2 15.75 2 16q0 2.214.786 4.223T5 23.82q.893-1.588 2.205-2.972t2.545-2.223 2.33-1.446 1.777-.86l.66-.23q.072-.02.233-.065t.232-.08zm-1.91-3.785q-2.144-3.8-4.358-6.75-2.464 1.164-4.18 3.324T2.25 13.59q5.392 0 10.82-1.43zm12.214 5.7q-3.75-1.07-7.304-.52 1.554 4.268 2.286 8.375 1.982-1.34 3.304-3.384t1.714-4.472zM10.91 4.624q-.017 0-.035.018.018-.018.036-.018zm10.536 2.59q-3.304-2.93-7.732-2.93-1.357 0-2.768.34 2.34 3.035 4.393 6.82 1.23-.464 2.32-1.08t1.72-1.098 1.17-1.018.67-.726zm3.983 8.66q-.057-4.143-2.664-7.32l-.018.017q-.16.214-.34.438t-.777.795-1.267 1.08-1.786 1.16-2.35 1.153q.447.946.787 1.696.036.107.116.313t.134.295q.643-.09 1.33-.125t1.313-.036 1.233.03 1.143.07 1.01.1.856.115.65.107.447.08zm2 .125q0 3.732-1.84 6.884t-4.99 4.99-6.887 1.84-6.884-1.84-4.99-4.99T0 16t1.84-6.884 4.99-4.99 6.885-1.84 6.884 1.84 4.99 4.99T27.43 16z"/></symbol><symbol viewBox="0 0 27 32"><path class="path1" d="M20.946 18.982q0-.893-.348-1.634t-.866-1.223-1.304-.875-1.473-.607-1.563-.41l-1.857-.43q-.536-.125-.786-.188t-.628-.205-.536-.286-.295-.375-.133-.54q0-1.374 2.57-1.374.768 0 1.375.214t.964.51.678.598.714.517.856.214q.838 0 1.347-.57t.51-1.377q0-.982-1-1.777t-2.53-1.203-3.25-.41q-1.214 0-2.357.276T8.9 8.665 7.31 10.22t-.598 2.296q0 1.09.34 1.902t1 1.347 1.428.866 1.84.58l2.606.645q1.607.393 2 .643.57.356.57 1.07 0 .696-.713 1.152t-1.875.454q-.91 0-1.634-.286t-1.16-.687-.814-.802-.82-.69-.965-.285q-.893 0-1.348.536t-.455 1.34q0 1.642 2.18 2.812t5.195 1.17q1.304 0 2.5-.33t2.188-.954 1.58-1.67.59-2.348zm6.483 3.875q0 2.84-2.01 4.848t-4.85 2.01q-2.32 0-4.18-1.43-1.374.286-2.678.286-2.554 0-4.884-.99T4.81 24.9t-2.68-4.017T1.142 16q0-1.305.287-2.68Q0 11.463 0 9.14q0-2.838 2.01-4.847t4.847-2.01q2.32 0 4.18 1.43 1.374-.286 2.678-.286 2.554 0 4.884.99t4.016 2.68 2.68 4.018.99 4.884q0 1.3-.286 2.676 1.43 1.857 1.43 4.18z"/></symbol><symbol viewBox="0 0 23 32"><path class="path1" d="M17.857 7.75l.66-3.464q.09-.41-.16-.714t-.625-.304H5.018q-.41 0-.688.304t-.277.66v19.662q0 .125.107.018l5.196-6.286q.41-.464.68-.598t.856-.134h4.268q.393 0 .66-.26t.322-.526q.43-2.32.66-3.41.072-.376-.204-.715t-.652-.34h-5.25q-.518 0-.857-.338t-.34-.857v-.75q0-.518.34-.848t.854-.33h6.18q.32 0 .624-.24t.356-.528zm4.054-3.964q-.265 1.304-.952 4.76t-1.24 6.25-.626 3.097q-.106.393-.16.58t-.25.58-.44.59-.686.374-1.036.18h-4.84q-.23 0-.392.178-.143.16-7.607 8.82-.393.447-1.045.51t-.866-.098q-.983-.393-.983-1.75V2.677q0-.98.68-1.83T3.607 0h15.856q1.696 0 2.268.946t.18 2.84zm0 0l-2.82 14.107q.07-.304.627-3.098t1.24-6.25.956-4.76z"/></symbol><symbol viewBox="0 0 32 32"><path class="path1" d="M2.268 16q0-2.91 1.196-5.59l6.554 17.947q-3.5-1.696-5.625-5.018T2.268 16zm23-.696q0 .34-.045.688t-.18.884-.204.786-.316 1.054-.313 1.036l-1.356 4.57-4.964-14.75q.82-.053 1.57-.142.34-.036.466-.33t-.045-.554-.51-.24l-3.66.178q-1.34-.018-3.605-.18-.214-.017-.366.09t-.207.268-.027.33.16.295.35.143l1.428.143 2.143 5.857-3 9-5-14.857q.82-.054 1.57-.143.34-.036.465-.33t-.044-.554-.51-.24l-3.66.178q-.125 0-.41-.01t-.465-.008Q6.41 5.61 9.436 3.94T16 2.27q2.624 0 5.01.945t4.257 2.66h-.18q-.98 0-1.642.724t-.66 1.702q0 .214.035.43t.07.383.142.41.16.376.215.403.223.375.26.43.25.41q1.125 1.91 1.125 3.785zm-9.036 1.892l4.232 11.554q.018.107.09.196-2.25.786-4.555.786-2 0-3.878-.57zM28.036 9.41q1.696 3.108 1.696 6.59 0 3.732-1.857 6.884t-4.982 4.973L27.09 15.75q1.053-3.018 1.053-4.93 0-.75-.107-1.41zM16 0q3.25 0 6.214 1.268t5.107 3.41 3.414 5.108T32 16t-1.268 6.214-3.41 5.107-5.108 3.414T16 32t-6.214-1.268-5.107-3.41-3.414-5.108T0 16t1.268-6.214 3.41-5.107 5.108-3.414T16 0zm0 31.268q3.09 0 5.92-1.214t4.875-3.26 3.26-4.874T31.267 16t-1.214-5.92-3.26-4.875-4.874-3.26T16 .733t-5.92 1.214-4.875 3.26-3.26 4.874T.733 16t1.214 5.92 3.26 4.875 4.874 3.26T16 31.267z"/></symbol><symbol viewBox="0 0 34 32"><path class="path1" d="M18.964 12.714v-2.107q0-.75-.536-1.286t-1.286-.533-1.286.536-.536 1.287v10.93q0 3.123-2.25 5.337T7.66 29.09q-3.18 0-5.42-2.242t-2.242-5.42v-4.75h5.857v4.68q0 .767.536 1.294t1.29.527 1.285-.53.536-1.295v-11.07q0-3.055 2.26-5.215t5.383-2.16q3.143 0 5.393 2.18t2.25 5.25v2.43l-3.482 1.034zm9.465 3.965h5.854v4.75q0 3.176-2.24 5.42t-5.42 2.24q-3.162 0-5.412-2.225t-2.25-5.366v-4.786l2.34 1.09 3.48-1.037v4.82q0 .75.537 1.278t1.286.527 1.286-.527.536-1.277v-4.913z"/></symbol><symbol viewBox="0 0 37 32"><path class="path1" d="M5.857 5.036H9.5V22.59H0V10.144h5.857V5.037zm0 14.625v-6.586H3.66v6.59h2.197zm5.107-9.515V22.59h3.66V10.142h-3.66zm0-5.107V8.68h3.66V5.035h-3.66zm5.125 5.107h9.515v16.82H16.09v-2.91h5.856V22.59H16.09V10.142zm5.854 9.518v-6.588H19.75v6.59h2.196zm5.125-9.517h9.5v16.82h-9.5v-2.91h5.84V22.59h-5.84V10.142zm5.84 9.518v-6.588h-2.196v6.59h2.196z"/></symbol><symbol viewBox="0 0 27 32"><path class="path1" d="M20.125 21.607q0-.57-.536-.91-3.45-2.055-7.985-2.055-2.375 0-5.125.607-.75.16-.75.926 0 .357.24.616t.636.26q.09 0 .66-.144 2.358-.483 4.34-.483 4.036 0 7.09 1.84.338.195.588.195.34 0 .59-.24t.25-.617zm1.714-3.84q0-.713-.628-1.088-4.232-2.52-9.786-2.52-2.732 0-5.41.75-.858.23-.858 1.142 0 .446.312.76t.76.312q.124 0 .66-.143 2.18-.59 4.482-.59 4.982 0 8.714 2.216.428.232.678.232.446 0 .76-.314t.312-.76zm1.926-4.428q0-.84-.714-1.25-2.25-1.307-5.232-1.976t-6.124-.67q-3.643 0-6.5.84-.41.124-.688.454t-.278.865q0 .554.366.93t.92.374q.196 0 .714-.144 2.375-.66 5.482-.66 2.84 0 5.527.606t4.526 1.695q.375.213.714.213.52 0 .903-.365t.384-.92zm3.66 2.66q0 3.73-1.838 6.882t-4.99 4.99-6.886 1.84-6.884-1.84-4.99-4.99T0 16t1.84-6.884 4.99-4.99 6.885-1.84 6.884 1.84 4.99 4.99T27.43 16z"/></symbol><symbol viewBox="0 0 41 32"><path class="path1" d="M14 24.5l.286-4.304-.286-9.34q-.018-.178-.134-.303t-.295-.125q-.16 0-.283.125t-.125.304l-.25 9.34.25 4.303q.02.18.135.295t.277.116q.394 0 .43-.41zm5.286-.518l.196-3.768-.214-10.464q0-.286-.232-.43-.143-.088-.286-.088t-.286.09q-.232.142-.232.428l-.018.107-.18 10.34.197 4.213v.018q0 .18.11.304.16.196.41.196.197 0 .358-.16.16-.126.16-.358zm-18.66-6.07l.356 2.285-.357 2.25q-.036.16-.16.16t-.162-.16L0 20.197l.303-2.286q.036-.16.16-.16t.162.16zM2.16 16.5l.465 3.696-.464 3.625q-.033.164-.176.164-.16 0-.16-.18l-.412-3.606.41-3.696q0-.16.163-.16.143 0 .18.16zm1.644-.68l.446 4.376-.446 4.232q0 .196-.196.196-.18 0-.214-.196l-.375-4.232.372-4.375q.036-.21.214-.21.196 0 .196.213zm1.678-.124l.41 4.5-.41 4.357q-.036.232-.25.232-.232 0-.232-.232l-.375-4.357.375-4.5q0-.232.232-.232.214 0 .25.232zm1.68.322l.374 4.18-.375 4.392q-.033.286-.283.286-.107 0-.188-.08t-.08-.205l-.36-4.39.357-4.18q0-.106.08-.187t.188-.08q.25 0 .286.27zM8.84 13.41l.373 6.788-.375 4.393q0 .127-.09.225t-.214.098q-.286 0-.32-.32L7.892 20.2l.32-6.787q.037-.32.322-.32.125 0 .214.098t.09.225zm1.677-1.534l.34 8.357-.34 4.357q0 .142-.098.24t-.24.098q-.324 0-.36-.34l-.286-4.356.286-8.357q.037-.34.358-.34.142 0 .24.1t.098.24zm1.75-.714l.32 9.037-.32 4.32q-.036.374-.393.374-.34 0-.375-.375l-.288-4.32.286-9.038q0-.16.115-.276t.26-.116q.16 0 .267.117t.125.277zm7 13.25zm-3.536-13.32l.27 9.103-.267 4.268q0 .18-.134.313t-.314.134-.304-.124-.14-.32l-.25-4.27.25-9.106q0-.196.133-.32t.313-.126.313.125.134.32zm1.77.34l.25 8.785-.25 4.214q0 .197-.143.34t-.34.143-.338-.142-.163-.34l-.214-4.212.214-8.786q.018-.214.16-.357t.34-.143.33.142.152.357zm3.786 8.784l-.25 4.125q0 .23-.16.394t-.394.16-.392-.16-.18-.393l-.107-2.036-.106-2.09.214-11.356v-.054q.037-.268.215-.43.16-.124.357-.124.143 0 .27.087.25.143.284.464zm19.857-.34q0 2.09-1.482 3.564t-3.57 1.473H22.055q-.232-.035-.393-.195t-.16-.393V8.268q0-.41.5-.59 1.52-.606 3.234-.606 3.482 0 6.036 2.348t2.856 5.777q.946-.393 1.964-.393 2.088 0 3.57 1.482t1.482 3.59z"/></symbol><symbol viewBox="0 0 32 32"><path class="path1" d="M3.857 20.875l10.768 7.18v-6.412L8.66 17.66zm-1.107-2.57L6.196 16 2.75 13.696v4.607zm14.625 9.75l10.768-7.18-4.804-3.214-5.967 3.985v6.41zM16 19.25L20.857 16 16 12.75 11.143 16zm-7.34-4.91l5.965-3.983v-6.41L3.857 11.124zM25.805 16l3.446 2.304v-4.607zm-2.465-1.66l4.803-3.215-10.768-7.18v6.412zM32 11.124v9.75q0 .732-.607 1.143l-14.625 9.75Q16.393 32 16 32t-.768-.232L.607 22.018Q0 21.608 0 20.875v-9.75q0-.732.607-1.143L15.232.232Q15.607 0 16 0t.768.232l14.625 9.75q.607.41.607 1.143z"/></symbol><symbol viewBox="0 0 32 32"><path class="path1" d="M16 7.75v7.75h-2.59V7.75H16zm7.107 0v7.75h-2.59V7.75h2.59zm0 13.57l4.518-4.535V2.59H6.305v18.73h5.82v3.876L16 21.32h7.107zM30.214 0v18.09l-7.75 7.75h-5.82l-3.876 3.874H8.893V25.84H1.786V5.16L3.732 0h26.482z"/></symbol><symbol viewBox="0 0 27 32"><path class="path1" d="M23.41 15.036v2.036q0 .43-.24.68t-.67.25h-3.607q-.43 0-.68-.25t-.25-.68v-2.036q0-.43.25-.68t.68-.25H22.5q.43 0 .67.25t.24.68zm-8.75 4.107V14.68q0-.947-.58-1.528t-1.526-.58H10.18q-1.215 0-1.715.93-.5-.93-1.714-.93H4.43q-.946 0-1.527.58t-.58 1.527v4.46q0 .394.375.394h.982q.393 0 .393-.393v-4.106q0-.43.24-.68t.69-.25H6.68q.43 0 .68.25t.25.68v4.107q0 .394.375.394h.964q.39 0 .39-.393v-4.106q0-.43.25-.68t.68-.25H12q.43 0 .67.25t.242.68v4.107q0 .394.393.394h.982q.374 0 .374-.393zm10.52-1.714v-2.75q0-.95-.59-1.53t-1.536-.58H18.34q-.946 0-1.536.58t-.59 1.527V22q0 .375.394.375h.982q.375 0 .375-.375v-3.214q.554.75 1.68.75h3.41q.946 0 1.536-.58t.59-1.527zm2.25-11v19.14q0 1.713-1.215 2.93t-2.93 1.212H4.145q-1.715 0-2.93-1.214T0 25.572V6.43Q0 4.714 1.214 3.5t2.93-1.214h19.142q1.714 0 2.93 1.214t1.213 2.93z"/></symbol><symbol viewBox="0 0 23 32"><path class="path1" d="M0 10.66q0-1.928.67-3.633t1.848-2.973 2.714-2.196T8.536.465 12.143 0q2.82 0 5.25 1.19t3.946 3.454 1.515 5.125q0 1.71-.34 3.354t-1.07 3.16-1.786 2.67-2.59 1.84-3.374.688q-1.214 0-2.41-.57T9.57 19.34q-.18.696-.5 2.01t-.42 1.695-.366 1.268-.464 1.268-.57 1.118-.822 1.383-1.107 1.546l-.25.09-.16-.18q-.27-2.804-.27-3.357 0-1.643.387-3.688t1.188-5.133.93-3.627q-.572-1.16-.572-3.017 0-1.482.93-2.786t2.358-1.3q1.09 0 1.697.722t.607 1.83q0 1.177-.786 3.41t-.786 3.34q0 1.123.806 1.864t1.946.74q.983 0 1.822-.445t1.402-1.214 1-1.696.68-1.974.356-1.982.116-1.777q0-3.09-1.955-4.813t-5.1-1.724q-3.57 0-5.963 2.314T3.305 11.09q0 .787.223 1.52t.48 1.16.483.813.225.545q0 .5-.268 1.304t-.66.804q-.037 0-.305-.054-.91-.268-1.615-1t-1.09-1.688-.58-1.93-.195-1.9z"/></symbol><symbol viewBox="0 0 31 32"><path class="path1" d="M27.946 2.286q1.16 0 1.964.813t.804 1.97v9.27q0 3.14-1.214 6t-3.26 4.91-4.892 3.26-5.973 1.203q-3.143 0-5.99-1.205T4.48 25.25t-3.268-4.91-1.214-6V5.072Q0 3.93.82 3.108t1.965-.82h25.16zm-12.57 19q.838 0 1.463-.59l7.21-6.928q.66-.625.66-1.518 0-.875-.614-1.49t-1.49-.617q-.84 0-1.465.59l-5.767 5.535-5.768-5.536q-.625-.59-1.446-.59-.875 0-1.49.617t-.617 1.49q0 .91.643 1.516l7.232 6.93q.587.588 1.444.588z"/></symbol><symbol viewBox="0 0 32 32"><path class="path1" d="M30.518 9.25q-.18 4.214-5.93 11.625-5.945 7.696-10.035 7.696-2.536 0-4.286-4.693Q9.48 21.02 7.91 15.27q-1.286-4.68-2.804-4.68-.32 0-2.268 1.357l-1.375-1.75q.43-.375 1.93-1.723t2.32-2.063Q8.5 3.948 10.017 3.805q1.696-.16 2.732.99t1.443 3.635q.786 5.124 1.18 6.66.98 4.446 2.142 4.446.91 0 2.75-2.875 1.804-2.874 1.946-4.392.233-2.482-1.945-2.482-1.018 0-2.16.464 2.142-7.02 8.195-6.823 4.483.143 4.215 5.82z"/></symbol><symbol viewBox="0 0 32 32"><path class="path1" d="M32 15.107q0 1.036-.527 1.884t-1.42 1.298q.214.82.214 1.714 0 2.77-1.902 5.126t-5.188 3.723-7.143 1.366T8.9 28.848t-5.18-3.723T1.82 20q0-.84.195-1.68-.91-.445-1.464-1.312T0 15.106q0-1.464 1.036-2.51t2.518-1.044q1.52 0 2.59 1.125 3.893-2.714 9.196-2.893L17.406.48q.055-.232.27-.375t.463-.09l6.586 1.447q.32-.66.964-1.063t1.41-.405q1.11 0 1.895.777t.786 1.884-.784 1.893-1.893.786-1.884-.777-.78-1.885l-5.963-1.32-1.857 8.428q5.357.16 9.27 2.857 1.034-1.087 2.552-1.087 1.482 0 2.518 1.045t1.037 2.51zM7.464 18.66q0 1.108.777 1.894t1.887.786 1.893-.786.785-1.893-.786-1.88-1.896-.78q-1.09 0-1.875.786t-.787 1.875zM21.93 25q.195-.196.195-.464t-.196-.464q-.18-.18-.45-.18t-.463.18q-.733.75-2.162 1.107T16 25.533t-2.856-.357-2.16-1.108q-.197-.18-.465-.18t-.45.18q-.195.18-.195.454t.196.473q.77.768 2.117 1.214t2.187.528 1.625.08 1.624-.08 2.188-.527T21.93 25zm-.055-3.66q1.107 0 1.884-.787t.774-1.893q0-1.09-.786-1.875T21.874 16q-1.107 0-1.893.776t-.785 1.884.786 1.893 1.894.786z"/></symbol><symbol viewBox="0 0 32 32"><path class="path1" d="M17.696 18.286l1.143-4.57H14.3l-1.143 4.57h4.535zm13.715-9l-1 4q-.122.43-.55.43h-5.84l-1.143 4.57h5.554q.268 0 .446.214.18.25.107.5l-1 4q-.09.43-.554.43h-5.84l-1.446 5.856q-.125.43-.554.43h-4q-.288 0-.466-.215-.16-.21-.107-.5l1.393-5.57h-4.535l-1.445 5.86q-.127.43-.556.43H5.857q-.268 0-.446-.215-.16-.214-.104-.5l1.393-5.57H1.142q-.268 0-.446-.215-.16-.214-.107-.5l1-4q.125-.43.554-.43h5.84l1.142-4.57H3.572q-.268 0-.446-.214-.18-.25-.107-.5l1-4q.086-.43.55-.43h5.84l1.446-5.856q.125-.43.57-.43h4q.27 0 .447.215.16.214.107.5l-1.392 5.57h4.535L21.57 2.72q.124-.43.57-.43h4q.27 0 .446.214.16.215.107.5L25.3 8.574h5.555q.268 0 .446.214.16.214.11.5z"/></symbol><symbol viewBox="0 0 30 32"><path class="path1" d="M26 21.714q0-.714-.5-1.214l-3.714-3.714q-.5-.5-1.214-.5-.75 0-1.286.57.054.055.34.33t.383.385.265.34.232.457.062.49q0 .715-.5 1.215t-1.215.5q-.268 0-.49-.062t-.456-.232-.34-.268-.384-.384-.33-.34q-.59.555-.59 1.305 0 .714.5 1.214l3.68 3.696q.48.48 1.213.48.713 0 1.213-.463L25.5 22.91q.5-.5.5-1.197zM13.446 9.124q0-.713-.5-1.213l-3.68-3.693q-.5-.5-1.213-.5-.696 0-1.214.482L4.21 6.803q-.5.5-.5 1.196 0 .714.5 1.214l3.714 3.714q.482.482 1.214.482.75 0 1.287-.554-.054-.054-.34-.33t-.383-.384-.268-.34-.232-.454-.063-.49q0-.715.5-1.215t1.216-.5q.268 0 .49.063t.456.232.34.268.384.384.33.34q.59-.555.59-1.305zm15.983 12.59q0 2.143-1.52 3.625l-2.626 2.604q-1.482 1.482-3.625 1.482-2.16 0-3.643-1.518l-3.68-3.697q-1.48-1.48-1.48-3.624 0-2.197 1.57-3.733l-1.57-1.57q-1.537 1.57-3.715 1.57-2.143 0-3.643-1.5L1.785 11.64Q.286 10.144.286 8t1.518-3.625L4.43 1.768Q5.91.286 8.053.286q2.16 0 3.643 1.518l3.68 3.696q1.48 1.482 1.48 3.625 0 2.196-1.57 3.732l1.57 1.57q1.537-1.57 3.715-1.57 2.145 0 3.645 1.5l3.714 3.714q1.5 1.5 1.5 3.646z"/></symbol><symbol viewBox="0 0 21 32"><path class="path1" d="M8.57 15.43v-8q0-.25-.16-.412T8 6.858t-.412.16-.16.41v8q0 .25.16.412t.41.16.412-.16.16-.41zm12 6.284q0 .464-.338.804t-.804.34h-7.66l-.912 8.624q-.036.214-.188.366t-.366.152h-.018q-.482 0-.57-.482l-1.358-8.66H1.142q-.464 0-.804-.34t-.34-.804q0-2.196 1.403-3.955T4.57 16V6.857q-.928 0-1.606-.68t-.68-1.606.68-1.604 1.607-.68H16q.93 0 1.607.68t.68 1.607-.68 1.608T16 6.86V16q1.768 0 3.17 1.76t1.402 3.954z"/></symbol><symbol viewBox="0 0 43 32"><path class="path1" d="M42.31 14.044c-.177-.178-.532-.356-.71-.356H7.822l10.31-10.49c.18-.177.357-.532.357-.71 0-.356-.18-.533-.36-.71L16.53.355C16.178.177 16 0 15.643 0s-.53.177-.71.355L.356 15.288c-.178.178-.356.533-.356.71s.176.534.354.712L15.11 31.643c0 .178.357.356.534.356s.533-.18.71-.36l1.6-1.6c.18-.177.357-.532.357-.71s-.175-.533-.353-.71L7.647 18.132H41.42c.178 0 .533-.178.71-.356.357-.178.534-.356.534-.71V14.93c0-.356-.178-.71-.356-.89z"/></symbol><symbol viewBox="0 0 43 32"><path class="path1" d="M.356 17.956c.178.178.533.356.71.356h33.78l-10.312 10.49c-.178.177-.356.532-.356.71 0 .356.178.533.356.71l1.6 1.6c.178.18.533.357.71.357s.534-.18.712-.36l14.756-14.93c.178-.356.356-.71.356-.89s-.178-.532-.356-.71L27.556.357C27.556.18 27.2 0 27.023 0s-.533.18-.71.357l-1.6 1.6c-.18.178-.357.533-.357.71s.178.534.356.712l10.31 10.486H1.246c-.178 0-.533.178-.71.356-.357.178-.534.356-.534.71v2.312c0 .178.18.533.357.71z"/></symbol><symbol viewBox="0 0 22 28"><path d="M21.625 14.484L.875 26.014C.39 26.282 0 26.047 0 25.5v-23c0-.548.39-.782.875-.517l20.75 11.53c.484.267.484.704 0 .97z"/></symbol><symbol viewBox="0 0 24 28"><path d="M24 3v22c0 .547-.453 1-1 1h-8c-.547 0-1-.453-1-1V3c0-.547.453-1 1-1h8c.547 0 1 .453 1 1zM10 3v22c0 .547-.453 1-1 1H1c-.547 0-1-.453-1-1V3c0-.547.453-1 1-1h8c.547 0 1 .453 1 1z"/></symbol></defs></svg>